<svg xmlns="http://www.w3.org/2000/svg" xmlns:xlink="http://www.w3.org/1999/xlink" width="379.49" height="372.964" viewBox="0 0 379.49 372.964"><defs><filter id="a" x="150.776" y="221.593" width="85.152" height="122.902" filterUnits="userSpaceOnUse"><feOffset dy="3" input="SourceAlpha"/><feGaussianBlur stdDeviation="3" result="b"/><feFlood flood-opacity="0.161"/><feComposite operator="in" in2="b"/><feComposite in="SourceGraphic"/></filter><filter id="c" x="170.968" y="220.871" width="85.585" height="123.624" filterUnits="userSpaceOnUse"><feOffset dy="3" input="SourceAlpha"/><feGaussianBlur stdDeviation="3" result="d"/><feFlood flood-opacity="0.161"/><feComposite operator="in" in2="d"/><feComposite in="SourceGraphic"/></filter><filter id="e" x="190.788" y="220.871" width="85.585" height="123.624" filterUnits="userSpaceOnUse"><feOffset dy="3" input="SourceAlpha"/><feGaussianBlur stdDeviation="3" result="f"/><feFlood flood-opacity="0.161"/><feComposite operator="in" in2="f"/><feComposite in="SourceGraphic"/></filter><filter id="g" x="119.121" y="0" width="260.369" height="372.964" filterUnits="userSpaceOnUse"><feOffset dx="-1" input="SourceAlpha"/><feGaussianBlur stdDeviation="2" result="h"/><feFlood flood-opacity="0.451"/><feComposite operator="in" in2="h"/><feComposite in="SourceGraphic"/></filter></defs><g transform="translate(-634.399 -175.261)"><g transform="translate(739.753 340.021)"><path d="M0,.945,190.7,0V9.91L5.065,8.729Z" transform="translate(0 163.459) rotate(-59)" fill="#e0e0e0"/><path d="M0,.945,176.106,0V9.91L4.677,8.729Z" transform="translate(19.82 163.459) rotate(-59)" fill="#e0e0e0"/><path d="M0,.945,176.106,0V9.91L4.677,8.729Z" transform="translate(39.64 163.459) rotate(-59)" fill="#e0e0e0"/><g transform="matrix(1, 0, 0, 1, -105.35, -164.76)" filter="url(#a)"><path d="M0,7.357l117.861.166L114.179.578,4.42,0Z" transform="translate(220.48 332.49) rotate(-121)" fill="#fff"/></g><g transform="matrix(1, 0, 0, 1, -105.35, -164.76)" filter="url(#c)"><path d="M0,7.357l118.7.166L114.95.65,4.452,0Z" transform="translate(241.11 332.49) rotate(-121)" fill="#fff"/></g><g transform="matrix(1, 0, 0, 1, -105.35, -164.76)" filter="url(#e)"><path d="M0,7.357l118.7.166L114.95.65,4.452,0Z" transform="translate(260.93 332.49) rotate(-121)" fill="#fff"/></g><path d="M18.168,0,36.337,29.73H0Z" transform="translate(63.027 134.217)" fill="#fff"/></g><path d="M40.632,0,331.494,13.468l36.37,65.614L0,69.419Z" transform="matrix(-0.485, 0.875, -0.875, -0.485, 881.909, 220.19)" fill="#d0cece"/><g transform="matrix(1, 0, 0, 1, 634.4, 175.26)" filter="url(#g)"><path d="M40.969,79.691,334.288,61.786,368.536,0,0,10.345Z" transform="translate(195.82 6) rotate(61)" fill="#fff"/></g><g transform="translate(795.812 186.209)" fill="#222831"><path d="M 25.70885276794434 64.44708251953125 L 6.445718288421631 33.30702590942383 L 25.35970306396484 1.045604825019836 L 44.39684677124023 33.31174468994141 L 25.70885276794434 64.44708251953125 Z" stroke="none"/><path d="M 25.36106491088867 2.031875610351562 L 7.029365539550781 33.30009841918945 L 25.70242118835449 63.48624801635742 L 43.81501770019531 33.30956268310547 L 25.36106491088867 2.031875610351562 M 25.35833358764648 0.059326171875 L 44.97868347167969 33.31394577026367 L 25.71529388427734 65.40792846679688 L 5.862064361572266 33.31394577026367 L 25.35833358764648 0.059326171875 Z" stroke="none" fill="#00adb5"/></g></g></svg>